<svg width="18" height="16" viewBox="0 0 18 16" fill="none" xmlns="http://www.w3.org/2000/svg">
<g clip-path="url(#clip0_4273_12384)">
<path d="M2.47187 11.0002H3.44375C3.71987 11.0002 3.94375 10.7763 3.94375 10.5002L3.97187 9.00019H5.44375C5.71987 9.00019 5.94375 8.77628 5.94375 8.50019V7.50019C5.94375 7.22406 5.71984 7.02831 5.44375 7.02831H3.97187L3.97189 5.55644C3.97189 5.28031 3.74799 5.08456 3.47189 5.08456H2.47187C2.19575 5.08456 2 5.3084 2 5.55644L1.97187 7.00019H0.5C0.223875 7.00019 0 7.22403 0 7.47206V8.47206C0 8.74819 0.223875 8.97206 0.5 8.97206H1.97187V10.5002C1.97187 10.7752 2.22375 11.0002 2.47187 11.0002ZM7 13.0002H11V12.0002H7V13.0002ZM2 13.0002H6L5.99999 12.0002H2V13.0002ZM2 4.00019H6L6.00001 3.00019H2V4.00019ZM17.9656 14.2283L17.4506 12.3011L13.6163 13.3339L14.13 15.2608C14.2715 15.7914 14.8175 16.1083 15.3456 15.9661L17.2609 15.4499C17.7906 15.3064 18.1063 14.7596 17.9656 14.2283ZM15.1406 3.63144L11.3062 4.66394L13.3616 12.3733L17.1959 11.3408L15.1406 3.63144ZM14.3687 0.73956C14.2273 0.208935 13.6812 -0.10794 13.1531 0.0342473L11.2344 0.550497C10.7063 0.692841 10.3909 1.24175 10.5325 1.77206L10.8625 3.00019H7L7.00001 4.00019H11V3.51894L11.0477 3.69765L14.882 2.66484L14.3687 0.73956Z" fill="white"/>
<path opacity="0.4" d="M5 0H3C2.44937 0 2 0.449375 2 1V3H6V1C6 0.449375 5.55 0 5 0ZM2 15C2 15.5506 2.44937 16 3 16H5C5.55063 16 6 15.5506 6 15L5.99998 13H2V15ZM7 15C7 15.5506 7.44938 16 8 16H10C10.55 16 10.9719 15.55 11 15V13H7V15ZM10.5344 1.77188C10.4227 1.35281 10.6019 0.93125 10.9394 0.69875C10.8094 0.296875 10.4438 0 10 0H8C7.45 0 7 0.449375 7 1V3H10.8625L10.5344 1.77188ZM17.1938 11.3375L13.3594 12.37L13.6163 13.3334L17.4507 12.3006L17.1938 11.3375ZM14.8844 2.66625L11.05 3.69906L11.307 4.6625L15.1413 3.63L14.8844 2.66625ZM7 12H11V4H7V12Z" fill="white"/>
</g>
<defs>
<clipPath id="clip0_4273_12384">
<rect width="18" height="16" fill="white"/>
</clipPath>
</defs>
</svg>
