<svg width="18" height="18" viewBox="0 0 18 18" fill="none" xmlns="http://www.w3.org/2000/svg">
<path d="M0.5625 3.375C0.5625 2.44301 1.31801 1.6875 2.25 1.6875C3.18199 1.6875 3.9375 2.44301 3.9375 3.375C3.9375 4.30664 3.18199 5.0625 2.25 5.0625C1.31801 5.0625 0.5625 4.30664 0.5625 3.375ZM3.9375 9C3.9375 9.93164 3.18199 10.6875 2.25 10.6875C1.31801 10.6875 0.5625 9.93164 0.5625 9C0.5625 8.06836 1.31801 7.3125 2.25 7.3125C3.18199 7.3125 3.9375 8.06836 3.9375 9ZM3.9375 14.625C3.9375 15.5566 3.18199 16.3125 2.25 16.3125C1.31801 16.3125 0.5625 15.5566 0.5625 14.625C0.5625 13.6934 1.31801 12.9375 2.25 12.9375C3.18199 12.9375 3.9375 13.6934 3.9375 14.625Z" fill="white"/>
<path opacity="0.4" d="M5.38203 2.925L6.73203 1.9125C6.92539 1.7666 7.16094 1.6875 7.40703 1.6875H14.9059C15.3734 1.6875 15.7496 2.06543 15.7496 2.53125V4.21875C15.7496 4.68633 15.3734 5.0625 14.9059 5.0625H7.40703C7.16094 5.0625 6.92539 4.98516 6.73203 4.8375L5.38203 3.825C5.07969 3.6 5.07969 3.15 5.38203 2.925ZM7.40703 7.3125H17.1559C17.6234 7.3125 17.9996 7.68867 17.9996 8.15625V9.84375C17.9996 10.3113 17.6234 10.6875 17.1559 10.6875H7.40703C7.16094 10.6875 6.92539 10.6102 6.73203 10.4625L5.38203 9.45C5.07969 9.225 5.07969 8.775 5.38203 8.55L6.73203 7.5375C6.92539 7.38984 7.16094 7.3125 7.40703 7.3125ZM7.40703 12.9375H14.9059C15.3734 12.9375 15.7496 13.3137 15.7496 13.7812V15.4688C15.7496 15.9363 15.3734 16.3125 14.9059 16.3125H7.40703C7.16094 16.3125 6.92539 16.2352 6.73203 16.0875L5.38203 15.075C5.07969 14.85 5.07969 14.4 5.38203 14.175L6.73203 13.1625C6.92539 13.0148 7.16094 12.9375 7.40703 12.9375Z" fill="white"/>
</svg>
