<svg width="18" height="18" viewBox="0 0 18 18" fill="none" xmlns="http://www.w3.org/2000/svg">
<path d="M0 4.5V15.1875C0 16.1191 0.755508 16.875 1.6875 16.875C2.61949 16.875 3.375 16.1191 3.375 15.1875V3.375H1.125C0.503789 3.375 0 3.87773 0 4.5ZM9.5625 10.125H6.1875C5.87813 10.125 5.625 10.3781 5.625 10.6875C5.625 10.9969 5.87813 11.25 6.1875 11.25H9.5625C9.87314 11.25 10.125 10.9981 10.125 10.6875C10.125 10.3781 9.87187 10.125 9.5625 10.125ZM11.8125 11.25H15.1875C15.4981 11.25 15.75 10.9981 15.75 10.6875C15.75 10.3781 15.4969 10.125 15.1875 10.125H11.8125C11.5031 10.125 11.25 10.3781 11.25 10.6875C11.25 10.9969 11.5031 11.25 11.8125 11.25ZM9.5625 13.5H6.1875C5.87813 13.5 5.625 13.7531 5.625 14.0625C5.625 14.3719 5.87813 14.625 6.1875 14.625H9.5625C9.87314 14.625 10.125 14.3731 10.125 14.0625C10.125 13.7531 9.87187 13.5 9.5625 13.5ZM15.1875 13.5H11.8125C11.5019 13.5 11.25 13.7518 11.25 14.0625C11.25 14.3731 11.5019 14.625 11.8125 14.625H15.1875C15.4981 14.625 15.75 14.3731 15.75 14.0625C15.75 13.7531 15.4969 13.5 15.1875 13.5Z" fill="white"/>
<path opacity="0.4" d="M16.875 1.125H4.5C3.87773 1.125 3.375 1.62879 3.375 2.25V15.1875C3.375 16.1191 2.61949 16.875 1.6875 16.875H15.75C16.9928 16.875 18 15.8678 18 14.625V2.25C18 1.62879 17.4973 1.125 16.875 1.125ZM9.5625 14.625H6.1875C5.87813 14.625 5.625 14.3719 5.625 14.0625C5.625 13.7531 5.87813 13.5 6.1875 13.5H9.5625C9.87314 13.5 10.125 13.7518 10.125 14.0625C10.125 14.3719 9.87187 14.625 9.5625 14.625ZM9.5625 11.25H6.1875C5.87813 11.25 5.625 10.9969 5.625 10.6875C5.625 10.3781 5.87813 10.125 6.1875 10.125H9.5625C9.87187 10.125 10.125 10.3781 10.125 10.6875C10.125 10.9969 9.87187 11.25 9.5625 11.25ZM15.1875 14.625H11.8125C11.5019 14.625 11.25 14.3731 11.25 14.0625C11.25 13.7518 11.5019 13.5 11.8125 13.5H15.1875C15.4981 13.5 15.75 13.7518 15.75 14.0625C15.75 14.3719 15.4969 14.625 15.1875 14.625ZM15.1875 11.25H11.8125C11.5031 11.25 11.25 10.9969 11.25 10.6875C11.25 10.3781 11.5031 10.125 11.8125 10.125H15.1875C15.4969 10.125 15.75 10.3781 15.75 10.6875C15.75 10.9969 15.4969 11.25 15.1875 11.25ZM15.75 7.3125C15.75 7.62187 15.4969 7.875 15.1875 7.875H6.1875C5.87813 7.875 5.625 7.62187 5.625 7.3125V3.9375C5.625 3.62812 5.87813 3.375 6.1875 3.375H15.1875C15.4969 3.375 15.75 3.62812 15.75 3.9375V7.3125Z" fill="white"/>
</svg>
